<?xml version="1.0" encoding="utf-8"?>
<!-- Generator: Adobe Illustrator 27.8.1, SVG Export Plug-In . SVG Version: 6.00 Build 0)  -->
<svg version="1.1" id="Layer_1" xmlns="http://www.w3.org/2000/svg" xmlns:xlink="http://www.w3.org/1999/xlink" x="0px" y="0px"
	 viewBox="0 0 71 46" style="enable-background:new 0 0 71 46;" xml:space="preserve">
<style type="text/css">
	.st0{fill:#FF3636;}
</style>
<g>
	<path class="st0" d="M2.79,19.31c0.19-0.31,0.4-0.61,0.58-0.92c0.52-0.88,1.04-1.77,1.56-2.65c0.77-1.31,1.55-2.62,2.32-3.94
		c0.8-1.37,1.6-2.75,2.4-4.12c0.46-0.8,0.93-1.59,1.4-2.38c0.48-0.83,0.96-1.66,1.45-2.49c0.21-0.36,0.3-0.37,0.65-0.14
		c1.01,0.7,2.03,1.4,3.04,2.1C17,5.34,17.82,5.9,18.64,6.47c0.44,0.3,0.43,0.31,0.17,0.75c-0.67,1.15-1.33,2.31-2.01,3.46
		c-0.76,1.3-1.53,2.59-2.29,3.89c-0.62,1.06-1.22,2.13-1.84,3.2c-0.85,1.45-1.7,2.89-2.55,4.34c-0.32,0.54-0.63,1.09-0.94,1.63
		c-0.19,0.32-0.28,0.34-0.58,0.13c-1.23-0.84-2.46-1.69-3.69-2.54c-0.67-0.46-1.34-0.9-2.01-1.35c-0.03-0.02-0.06-0.02-0.09-0.02
		C2.79,19.74,2.79,19.53,2.79,19.31z"/>
	<path class="st0" d="M68.21,19.26c-0.47,0.32-0.95,0.63-1.42,0.95c-0.74,0.51-1.48,1.03-2.22,1.55c-0.69,0.49-1.38,0.98-2.08,1.47
		c-0.39,0.28-0.49,0.27-0.73-0.14c-0.66-1.12-1.31-2.25-1.96-3.38c-0.51-0.87-1.02-1.74-1.53-2.61c-0.58-1-1.15-2.01-1.73-3.01
		c-0.36-0.63-0.75-1.24-1.11-1.87c-0.61-1.06-1.21-2.12-1.82-3.18c-0.46-0.8-0.95-1.58-1.41-2.37C51.95,6.27,52,6.12,52.4,5.86
		c0.36-0.24,0.72-0.48,1.07-0.73C54.28,4.57,55.09,4,55.9,3.44c0.64-0.45,1.28-0.91,1.91-1.36c0.33-0.23,0.49-0.21,0.7,0.14
		c0.38,0.63,0.74,1.26,1.11,1.9c0.58,1.01,1.16,2.02,1.75,3.03c0.66,1.14,1.33,2.28,1.99,3.42c0.86,1.48,1.72,2.96,2.58,4.44
		c0.71,1.22,1.4,2.44,2.11,3.66c0.04,0.06,0.11,0.11,0.16,0.16C68.21,18.97,68.21,19.12,68.21,19.26z"/>
	<path class="st0" d="M32.56,42.79c0.24-0.41,0.46-0.79,0.69-1.16c0.33-0.53,0.49-1.12,0.49-1.72c0-0.74-0.23-1.44-0.72-2.03
		c-0.42-0.5-0.93-0.86-1.56-1.05c-0.38-0.11-0.44-0.29-0.36-0.67c0.18-0.85,0.14-1.68-0.22-2.5c-0.39-0.87-1.02-1.46-1.87-1.84
		c-0.22-0.1-0.48-0.14-0.73-0.16c-0.59-0.05-0.62-0.18-0.69-0.71c-0.05-0.35-0.03-0.71-0.12-1.04c-0.17-0.71-0.56-1.29-1.12-1.75
		c-0.6-0.49-1.3-0.74-2.05-0.77c-0.83-0.03-1.58,0.24-2.16,0.87c-0.25,0.27-0.47,0.56-0.69,0.86c-0.17,0.23-0.24,0.22-0.39-0.03
		c-0.49-0.85-1.19-1.48-2.15-1.69c-1.12-0.24-2.14,0.02-2.97,0.87c-0.11,0.12-0.24,0.22-0.39,0.36c-0.28-0.4-0.55-0.79-0.82-1.17
		c-0.64-0.92-1.28-1.83-1.93-2.75c-0.39-0.55-0.78-1.11-1.16-1.67c-0.12-0.18-0.11-0.37,0-0.56c0.59-1.02,1.18-2.05,1.78-3.07
		c0.64-1.09,1.28-2.18,1.92-3.27c1.13-1.93,2.25-3.86,3.38-5.79c0.09-0.16,0.19-0.32,0.3-0.48c0.13-0.19,0.28-0.2,0.48-0.08
		c0.47,0.29,0.94,0.6,1.43,0.84c0.43,0.21,0.9,0.38,1.37,0.52c0.72,0.21,1.45,0.38,2.18,0.55c0.34,0.08,0.7,0.09,1.05,0.14
		c0.1,0.02,0.24,0.06,0.29,0.14c0.03,0.05-0.03,0.2-0.09,0.28c-0.64,0.9-1.3,1.8-1.94,2.71c-0.44,0.61-0.88,1.22-1.28,1.85
		c-0.43,0.67-0.6,1.42-0.44,2.19c0.23,1.12,0.87,1.93,1.99,2.31c0.67,0.23,1.31,0.15,1.92-0.19c1.28-0.71,2.56-1.43,3.84-2.15
		c1.07-0.6,2.13-1.21,3.2-1.8c0.53-0.3,1.07-0.58,1.62-0.85c0.4-0.2,0.79-0.08,1.13,0.15c1.12,0.77,2.23,1.56,3.34,2.34
		c1.04,0.73,2.08,1.47,3.12,2.2c1.06,0.74,2.14,1.47,3.2,2.21c1.04,0.73,2.07,1.47,3.11,2.2c0.83,0.59,1.68,1.16,2.52,1.75
		c0.89,0.63,1.79,1.26,2.67,1.9c0.39,0.29,0.62,0.69,0.79,1.15c0.17,0.46,0.17,0.94,0.08,1.38c-0.13,0.69-0.58,1.2-1.23,1.49
		c-0.75,0.33-1.45,0.15-2.11-0.28c-1.02-0.66-2.04-1.31-3.06-1.96c-0.56-0.36-1.11-0.72-1.66-1.08c-1.12-0.73-2.24-1.45-3.37-2.17
		c-0.49-0.32-0.98-0.64-1.48-0.94c-0.38-0.23-0.85-0.05-1.04,0.36c-0.27,0.59-0.05,0.87,0.5,1.25c0.97,0.65,1.96,1.25,2.95,1.88
		c1.11,0.71,2.23,1.42,3.34,2.14c0.7,0.45,1.4,0.9,2.09,1.37c1.23,0.84,1.01,2.48-0.13,3.19c-0.44,0.28-0.93,0.56-1.47,0.44
		c-0.45-0.1-0.89-0.32-1.3-0.55c-0.82-0.46-1.63-0.96-2.44-1.45c-0.82-0.49-1.63-0.99-2.45-1.47c-0.78-0.45-1.57-0.9-2.37-1.32
		c-0.49-0.26-0.83-0.17-1.09,0.22c-0.27,0.4-0.13,0.96,0.32,1.23c1.03,0.61,2.07,1.2,3.1,1.81c0.82,0.49,1.62,1,2.43,1.5
		c0.44,0.27,0.88,0.53,1.3,0.83c0.61,0.43,0.75,1.08,0.54,1.81c-0.21,0.75-0.75,1.17-1.43,1.44c-0.65,0.26-1.27,0.07-1.85-0.25
		c-1.02-0.57-2.03-1.14-3.05-1.7c-0.89-0.48-1.78-0.95-2.67-1.43c-0.4-0.22-0.73-0.05-0.92,0.2c-0.27,0.35-0.28,0.82,0.03,1.08
		c0.33,0.27,0.7,0.5,1.07,0.71c1.31,0.74,2.62,1.46,3.93,2.18c0.18,0.1,0.35,0.19,0.6,0.33c-0.38,0.25-0.7,0.49-1.05,0.69
		c-0.82,0.48-1.71,0.57-2.64,0.48c-0.74-0.07-1.49-0.14-2.22-0.25c-0.52-0.07-1.02-0.21-1.54-0.3
		C33.69,42.97,33.14,42.89,32.56,42.79z"/>
	<path class="st0" d="M23.6,18.39c0.08-0.17,0.15-0.43,0.29-0.63c0.63-0.92,1.29-1.83,1.94-2.74c0.73-1.03,1.46-2.07,2.2-3.09
		c0.55-0.75,1.26-1.29,2.17-1.54c0.49-0.13,1-0.22,1.5-0.34C32.47,9.87,33.23,9.68,34,9.5c0.2-0.05,0.4-0.08,0.6-0.11
		c0.64-0.11,1.28-0.24,1.93-0.34c0.36-0.06,0.73-0.1,1.1-0.11c0.9-0.01,1.81-0.04,2.71,0.01c0.62,0.03,1.23,0.18,1.84,0.28
		c0.48,0.08,0.97,0.16,1.45,0.26c0.42,0.09,0.84,0.21,1.26,0.3c0.43,0.09,0.87,0.17,1.3,0.26c0.63,0.14,1.25,0.31,1.89,0.41
		c0.66,0.11,1.31,0.09,1.93-0.25c0.5-0.28,1.03-0.51,1.56-0.75c0.28-0.13,0.51-0.02,0.66,0.25c0.49,0.86,0.97,1.72,1.46,2.58
		c1.05,1.82,2.1,3.64,3.17,5.46c0.61,1.05,1.24,2.09,1.86,3.13c0.33,0.57,0.66,1.14,0.99,1.71c0.2,0.36,0.15,0.69-0.14,0.99
		c-0.66,0.67-1.34,1.33-2,2.01c-0.69,0.7-1.35,1.42-2.04,2.12c-0.28,0.29-0.44,0.29-0.77,0.06c-1.15-0.81-2.29-1.62-3.44-2.42
		c-1.24-0.87-2.48-1.72-3.72-2.59c-1.3-0.91-2.6-1.82-3.9-2.73c-1.19-0.83-2.39-1.66-3.58-2.49c-1.07-0.75-2.12-1.51-3.19-2.27
		c-0.72-0.51-1.52-0.76-2.38-0.61c-0.43,0.07-0.86,0.26-1.25,0.47c-0.93,0.51-1.84,1.08-2.77,1.61c-1.6,0.91-3.2,1.82-4.81,2.71
		c-0.49,0.27-1.01,0.4-1.53,0.04C23.84,19.26,23.66,18.9,23.6,18.39z"/>
	<path class="st0" d="M17.91,38.3c0-0.57,0.3-0.99,0.58-1.43c0.77-1.21,1.54-2.42,2.31-3.62c0.46-0.71,0.93-1.42,1.39-2.12
		c0.28-0.43,0.55-0.86,0.85-1.28c0.3-0.41,0.72-0.58,1.24-0.56c0.52,0.02,1,0.13,1.33,0.56c0.51,0.68,0.65,1.5,0.18,2.29
		c-0.43,0.71-0.88,1.41-1.33,2.11c-0.55,0.87-1.11,1.74-1.66,2.62c-0.54,0.85-1.05,1.71-1.61,2.53c-0.33,0.48-0.81,0.84-1.45,0.83
		c-0.79-0.02-1.31-0.46-1.63-1.14C18.02,38.83,17.98,38.56,17.91,38.3z"/>
	<path class="st0" d="M27.73,33.37c0.82-0.04,1.53,0.68,1.74,1.39c0.24,0.81-0.11,1.42-0.49,2.04c-0.55,0.89-1.14,1.76-1.71,2.65
		c-0.45,0.7-0.88,1.4-1.31,2.12c-0.3,0.5-0.68,0.89-1.26,1.01c-0.4,0.09-0.78-0.05-1.14-0.22c-0.89-0.43-1.16-1.38-0.88-2.29
		c0.19-0.64,0.63-1.13,0.96-1.69c0.42-0.71,0.89-1.39,1.34-2.08c0.51-0.78,1.02-1.57,1.56-2.34C26.84,33.54,27.25,33.37,27.73,33.37
		z"/>
	<path class="st0" d="M19.9,31.15c0.03,0.52-0.29,0.9-0.54,1.31c-0.46,0.76-0.92,1.52-1.4,2.27c-0.23,0.37-0.45,0.76-0.75,1.08
		c-0.83,0.89-2.13,0.39-2.6-0.51c-0.34-0.65-0.29-1.28,0.06-1.89c0.49-0.86,1-1.71,1.52-2.56c0.25-0.41,0.52-0.81,0.82-1.18
		c0.82-1.03,2.36-0.57,2.74,0.5c0.11,0.31,0.14,0.65,0.21,0.97C19.94,31.14,19.92,31.15,19.9,31.15z"/>
	<path class="st0" d="M32.05,40c0.14,0.52-0.22,0.9-0.46,1.3c-0.44,0.72-0.91,1.41-1.38,2.11c-0.31,0.46-0.73,0.71-1.3,0.66
		c-0.54-0.04-1.07-0.56-1.24-1.1c-0.22-0.67,0.14-1.16,0.41-1.67c0.47-0.89,1.08-1.68,1.7-2.47c0.58-0.73,1.63-0.46,2.04,0.17
		C32.01,39.3,32.1,39.62,32.05,40z"/>
</g>
</svg>
